<!-- icon666.com - MILLIONS OF FREE VECTOR ICONS --><svg version="1.1" id="Layer_1" xmlns="http://www.w3.org/2000/svg" xmlns:xlink="http://www.w3.org/1999/xlink" x="0px" y="0px" viewBox="0 0 512 512" style="enable-background:new 0 0 512 512;" xml:space="preserve"><circle style="fill:#FFD07D;" cx="256" cy="256" r="256"></circle><g><rect x="164.656" y="146.384" style="fill:#E04F5F;" width="182.688" height="48"></rect><rect x="232" y="79.04" style="fill:#E04F5F;" width="48" height="182.688"></rect></g><g><path style="fill:#415E72;" d="M282.568,432.96c-15.296-31.504-4.68-69.472,24.736-88.472c51.528-36.192,65.96-56.296,65.96-56.296 s28.856-8.04,16.488,16.088c-8.288,15.4-19.48,29.056-32.952,40.208c0,0,39.2-8.04,49.472-40.216s0-50.264,24.736-56.296 c0,0,12.368,60.32-24.736,96.512S325.856,394.76,323.8,432.96H282.568z"></path><path style="fill:#415E72;" d="M229.432,432.96c15.296-31.504,4.68-69.472-24.736-88.472c-51.528-36.192-65.96-56.296-65.96-56.296 s-28.856-8.04-16.488,16.088c8.288,15.4,19.48,29.056,32.952,40.208c0,0-39.2-8.04-49.472-40.216s0-50.264-24.736-56.296 c0,0-12.368,60.32,24.736,96.512s80.416,50.272,82.472,88.472L229.432,432.96L229.432,432.96z"></path></g></svg>