<!-- icon666.com - MILLIONS OF FREE VECTOR ICONS --><svg id="Icons" viewBox="0 0 512 512" xmlns="http://www.w3.org/2000/svg"><path d="m512 256c0 141.38-114.62 256-256 256-128.46 0-234.84-94.64-253.19-218a257.45 257.45 0 0 1 -2.81-38c0-141.38 114.62-256 256-256 136.45 0 248 106.76 255.58 241.3.28 4.86.42 9.77.42 14.7z" fill="#efb732"></path><path d="m512 256c0 141.38-114.62 256-256 256-128.46 0-234.84-94.64-253.19-218 1.51-.54 3-1.15 4.49-1.81 9.93-4.45 18.6-11.41 28.69-15.47a55.81 55.81 0 0 1 42.66.63c12.94 5.65 24.19 16.43 38.35 17.25 11.66.68 22.71-5.84 30.87-14.19s14.13-18.54 21.13-27.81c9.77-12.78 22.07-24.11 37-30s32.87-5.77 46.41 2.92c12.62 8.11 19.87 22.15 29.59 33.56 13.82 16.23 35.65 27.79 56.36 22.66 16.74-4.15 31.1-18.54 48.27-16.89s28.53 18.62 43.83 26.83c20.13 10.8 48 3.63 60.43-15.53 7.22-11.18 11.41-26.86 20.61-34.83.36 4.84.5 9.75.5 14.68z" fill="#e2a427"></path><path d="m97.82 424.34h316.36a8.78 8.78 0 0 0 8.77-8.78v-282.74h-333.9v282.74a8.78 8.78 0 0 0 8.77 8.78z" fill="#f4e6f4"></path><path d="m153.43 424.32h-55.59a8.77 8.77 0 0 1 -8.79-8.75v-282.74h33.77v260.92a30.6 30.6 0 0 0 30.61 30.57z" fill="#decee5"></path><ellipse cx="410.1" cy="181.45" fill="#fff" rx="12.85" ry="41.9"></ellipse><ellipse cx="410.1" cy="256.57" fill="#fff" rx="7.88" ry="25.71"></ellipse><path d="m251.05 321.82h57.84a6.06 6.06 0 0 1 6.06 6.06v96.45a0 0 0 0 1 0 0h-63.9a0 0 0 0 1 0 0v-102.51a0 0 0 0 1 0 0z" fill="#3e4e60"></path><rect fill="#334353" height="7" rx="3.5" width="18.63" x="260.18" y="380"></rect><ellipse cx="304" cy="338.73" fill="#3f5d77" rx="6.66" ry="12.6"></ellipse><ellipse cx="304" cy="364.75" fill="#3f5d77" rx="3.52" ry="8.8"></ellipse><path d="m187.15 321.82h63.9a0 0 0 0 1 0 0v96.45a6.06 6.06 0 0 1 -6.06 6.06h-57.84a0 0 0 0 1 0 0v-102.51a0 0 0 0 1 0 0z" fill="#334353" transform="matrix(-1 0 0 -1 438.2 746.15)"></path><rect fill="#2e3140" height="7" rx="3.5" transform="matrix(-1 0 0 -1 465.21 767.01)" width="18.63" x="223.29" y="380"></rect><ellipse cx="198.1" cy="338.73" fill="#3e4e60" rx="6.66" ry="12.6"></ellipse><ellipse cx="198.1" cy="364.75" fill="#3e4e60" rx="3.52" ry="8.8"></ellipse><g fill="#29a3fb"><rect height="70.63" rx="13.91" width="43.37" x="346.96" y="151.87"></rect><rect height="70.63" rx="13.91" width="43.37" x="346.96" y="234.28"></rect><rect height="70.63" rx="13.91" width="43.37" x="346.96" y="316.69"></rect><path d="m155.14 165.79v42.8a13.91 13.91 0 0 1 -13.91 13.91h-15.55a14.15 14.15 0 0 1 -2.86-.29 13.93 13.93 0 0 1 -11-13.62v-42.8a13.93 13.93 0 0 1 11-13.63 14.15 14.15 0 0 1 2.86-.29h15.55a13.92 13.92 0 0 1 13.91 13.92z"></path><path d="m155.14 248.2v42.8a13.91 13.91 0 0 1 -13.91 13.91h-15.55a14.15 14.15 0 0 1 -2.86-.29 13.93 13.93 0 0 1 -11-13.62v-42.8a13.93 13.93 0 0 1 11-13.63 14.15 14.15 0 0 1 2.86-.29h15.55a13.92 13.92 0 0 1 13.91 13.92z"></path><path d="m155.14 330.6v42.81a13.91 13.91 0 0 1 -13.91 13.91h-15.55a14.15 14.15 0 0 1 -2.86-.29 13.93 13.93 0 0 1 -11-13.62v-42.81a13.93 13.93 0 0 1 11-13.62 14.15 14.15 0 0 1 2.86-.29h15.55a13.91 13.91 0 0 1 13.91 13.91z"></path></g><path d="m122.82 152.16v70.05a13.93 13.93 0 0 1 -11-13.62v-42.8a13.93 13.93 0 0 1 11-13.63z" fill="#0989d8"></path><path d="m122.82 234.57v70.05a13.93 13.93 0 0 1 -11-13.62v-42.8a13.93 13.93 0 0 1 11-13.63z" fill="#0989d8"></path><path d="m122.82 317v70a13.93 13.93 0 0 1 -11-13.62v-42.78a13.93 13.93 0 0 1 11-13.6z" fill="#0989d8"></path><path d="m276.85 209.91a13.61 13.61 0 0 1 -13.61-13.61v-32.24a12.19 12.19 0 1 0 -24.37 0v32.24a13.61 13.61 0 0 1 -13.62 13.61h-32.25a12.19 12.19 0 0 0 0 24.37h32.24a13.62 13.62 0 0 1 13.62 13.61v32.25a12.19 12.19 0 0 0 24.37 0v-32.25a13.61 13.61 0 0 1 13.61-13.61h32.24a12.19 12.19 0 0 0 0-24.37z" fill="#e52e44"></path><ellipse cx="254.66" cy="177.4" fill="#fa4654" rx="6.09" ry="18.45"></ellipse><ellipse cx="254.66" cy="212.66" fill="#fa4654" rx="3.83" ry="11.61"></ellipse><path d="m443.46 115.12v5.88a11.82 11.82 0 0 1 -11.83 11.83h-351.26a11.83 11.83 0 0 1 -11.83-11.83v-5.87a12.24 12.24 0 0 1 .22-2.28 11.84 11.84 0 0 1 11.61-9.55h351.26a11.83 11.83 0 0 1 11.61 9.55 12.24 12.24 0 0 1 .22 2.27z" fill="#3e4e60"></path><path d="m443.24 112.84a11.82 11.82 0 0 1 -11.61 9.54h-351.26a11.84 11.84 0 0 1 -11.61-9.54 11.84 11.84 0 0 1 11.61-9.55h351.26a11.83 11.83 0 0 1 11.61 9.55z" fill="#3f5d77"></path><ellipse cx="324.29" cy="111.27" fill="#3f6c8e" rx="44.36" ry="6.78"></ellipse><ellipse cx="404.59" cy="111.27" fill="#3f6c8e" rx="30.96" ry="4.73"></ellipse></svg>