<!-- icon666.com - MILLIONS OF FREE VECTOR ICONS --><svg clip-rule="evenodd" fill-rule="evenodd" image-rendering="optimizeQuality" shape-rendering="geometricPrecision" text-rendering="geometricPrecision" viewBox="0 0 1.70666 1.70666" xmlns="http://www.w3.org/2000/svg"><g id="Layer_x0020_1"><g fill="#2b1330"><path d="m1.27092 1.70666h-.871472c-.0100236 0-.0181654-.0081378-.0181654-.0181654v-1.36168c0-.0100276.00814173-.0181457.0181654-.0181457h.871472c.0100276 0 .0181654.00811811.0181654.0181457v1.36168c0 .0100354-.0081378.0181654-.0181654.0181654zm-.853319-.0363071h.835169v-1.32537h-.835169z"></path><path d="m.980433 1.70666h-.290512c-.0100157 0-.0181457-.0081378-.0181457-.0181654v-.363094c0-.0100236.0081378-.0181654.0181457-.0181654h.290512c.0100236 0 .0181417.00814173.0181417.0181654v.363094c0 .0100354-.00811811.0181654-.0181417.0181654zm-.27235-.0363071h.254185v-.326799h-.254185z"></path><path d="m.889642.344984h-.108933c-.0100276 0-.0181654-.0081378-.0181654-.0181654v-.081685h-.081685c-.0100276 0-.0181654-.00814173-.0181654-.0181654v-.108933c0-.0100276.0081378-.0181654.0181654-.0181654h.081685v-.081685c0-.0100276.0081378-.0181654.0181654-.0181654h.108933c.0100276 0 .0181654.0081378.0181654.0181654v.081685h.081685c.0100276 0 .0181654.0081378.0181654.0181654v.108933c0 .0100236-.0081378.0181654-.0181654.0181654h-.081685v.081685c0 .0100315-.00812992.0181654-.0181654.0181654zm-.0907835-.036311h.0726417v-.0817047c0-.0100118.00811417-.0181457.0181417-.0181457h.0817087v-.072622h-.0817087c-.0100276 0-.0181417-.00814173-.0181417-.0181654v-.081685h-.0726417v.081685c0 .0100236-.00811417.0181654-.0181417.0181654h-.0817165v.072622h.0817087c.0100276 0 .0181457.0081378.0181457.0181457l.00000394.0817047z"></path><path d="m1.27092 1.57956h-.290488c-.0100276 0-.0181654-.0081378-.0181654-.0181417 0-.0100276.0081378-.0181654.0181654-.0181654h.290488c.0100276 0 .0181654.0081378.0181654.0181654 0 .0100118-.0081378.0181417-.0181654.0181417z"></path><path d="m.689921 1.57956h-.290484c-.0100276 0-.0181654-.0081378-.0181654-.0181417 0-.0100276.0081378-.0181654.0181654-.0181654h.290484c.0100236 0 .0181614.0081378.0181614.0181654 0 .0100118-.00811417.0181417-.0181614.0181417z"></path><path d="m.599173.708079h-.0907913c-.0100236 0-.0181654-.00811811-.0181654-.0181457v-.254181c0-.0100118.00814173-.0181457.0181654-.0181457h.0907913c.0100118 0 .0181417.00814173.0181417.0181457v.254197c0 .0100118-.00812992.0181299-.0181417.0181299zm-.0726378-.036311h.0544724v-.21785h-.0544724z"></path><path d="m.780709.708079h-.0907874c-.0100157 0-.0181457-.00811811-.0181457-.0181457v-.254181c0-.0100118.0081378-.0181457.0181457-.0181457h.0907874c.0100276 0 .0181457.00814173.0181457.0181457v.254197c.00000394.0100118-.00809843.0181299-.0181457.0181299zm-.072626-.036311h.0544606v-.21785h-.0544606z"></path><path d="m.962268.708079h-.0907677c-.0100276 0-.0181654-.00811811-.0181654-.0181457v-.254181c0-.0100118.0081378-.0181457.0181654-.0181457h.0907677c.0100236 0 .0181654.00814173.0181654.0181457v.254197c0 .0100118-.00814173.0181299-.0181654.0181299zm-.072626-.036311h.0544803v-.21785h-.0544803z"></path><path d="m1.14384.708079h-.0907835c-.0100276 0-.0181654-.00811811-.0181654-.0181457v-.254181c0-.0100118.0081378-.0181457.0181654-.0181457h.0907835c.0100118 0 .0181417.00814173.0181417.0181457v.254197c.00000787.0100118-.00812992.0181299-.0181417.0181299zm-.0726181-.036311h.0544528v-.21785h-.0544528z"></path><path d="m.599173.962272h-.0907913c-.0100236 0-.0181654-.0081378-.0181654-.0181654v-.254173c0-.0100276.00814173-.0181654.0181654-.0181654h.0907913c.0100118 0 .0181417.0081378.0181417.0181654v.254173c0 .0100354-.00812992.0181654-.0181417.0181654zm-.0726378-.0363071h.0544724v-.217886h-.0544724z"></path><path d="m.780709.962272h-.0907874c-.0100157 0-.0181457-.0081378-.0181457-.0181654v-.254173c0-.0100276.0081378-.0181654.0181457-.0181654h.0907874c.0100276 0 .0181457.0081378.0181457.0181654v.254173c.00000394.0100354-.00809843.0181654-.0181457.0181654zm-.072626-.0363071h.0544606v-.217886h-.0544606z"></path><path d="m.962268.962272h-.0907677c-.0100276 0-.0181654-.0081378-.0181654-.0181654v-.254173c0-.0100276.0081378-.0181654.0181654-.0181654h.0907677c.0100236 0 .0181654.0081378.0181654.0181654v.254173c0 .0100354-.00814173.0181654-.0181654.0181654zm-.072626-.0363071h.0544803v-.217886h-.0544803z"></path><path d="m1.14384.962272h-.0907835c-.0100276 0-.0181654-.0081378-.0181654-.0181654v-.254173c0-.0100276.0081378-.0181654.0181654-.0181654h.0907835c.0100118 0 .0181417.0081378.0181417.0181654v.254173c.00000787.0100354-.00812992.0181654-.0181417.0181654zm-.0726181-.0363071h.0544528v-.217886h-.0544528z"></path><path d="m.599173 1.21646h-.0907913c-.0100236 0-.0181654-.00814173-.0181654-.0181654v-.254197c0-.0100118.00814173-.0181457.0181654-.0181457l.0907913-.00000394c.0100118 0 .0181417.0081378.0181417.0181417v.254197c0 .0100551-.00812992.0181732-.0181417.0181732zm-.0726378-.0363189h.0544724v-.217886l-.0544724.00000787v.217878z"></path><path d="m.780709 1.21646h-.0907874c-.0100157 0-.0181457-.00814173-.0181457-.0181654v-.254197c0-.0100118.0081378-.0181457.0181457-.0181457l.0907874-.00000394c.0100276 0 .0181457.0081378.0181457.0181417v.254197c.00000394.0100551-.00809843.0181732-.0181457.0181732zm-.072626-.0363189h.0544606v-.217886l-.0544606.00000787v.217878z"></path><path d="m.962268 1.21646h-.0907677c-.0100276 0-.0181654-.00814173-.0181654-.0181654v-.254197c0-.0100118.0081378-.0181457.0181654-.0181457l.0907677-.00000394c.0100236 0 .0181654.0081378.0181654.0181417v.254197c0 .0100551-.00814173.0181732-.0181654.0181732zm-.072626-.0363189h.0544803v-.217886l-.0544803.00000787v.217878z"></path><path d="m1.14384 1.21646h-.0907835c-.0100276 0-.0181654-.00814173-.0181654-.0181654v-.254197c0-.0100118.0081378-.0181457.0181654-.0181457l.0907835-.00000394c.0100118 0 .0181417.0081378.0181417.0181417v.254197c.00000787.0100551-.00812992.0181732-.0181417.0181732zm-.0726181-.0363189h.0544528v-.217886l-.0544528.00000787v.217878z"></path><path d="m1.54325 1.70666h-.272346c-.0100118 0-.0181457-.0081378-.0181457-.0181654v-.835157c0-.0100236.0081378-.0181654.0181457-.0181654h.272346c.0100276 0 .0181654.00814173.0181654.0181654v.835157c0 .0100354-.0081378.0181654-.0181654.0181654zm-.254161-.0363071h.236031v-.798862h-.236031z"></path><path d="m.399449 1.70666h-.272339c-.0100276 0-.0181654-.0081378-.0181654-.0181654v-.835157c0-.0100236.0081378-.0181654.0181654-.0181654h.272339c.0100118 0 .0181457.00814173.0181457.0181654v.835157c.00000787.0100354-.00813386.0181654-.0181457.0181654zm-.254197-.0363071h.236031v-.798862h-.236031z"></path><path d="m1.5251.544685c-.0700709 0-.127098-.0570354-.127098-.127098 0-.070063.0570315-.127098.127098-.127098.070063 0 .127098.0570354.127098.127098 0 .070063-.0570276.127098-.127098.127098zm0-.217866c-.0500709 0-.0907913.0407205-.0907913.0907874 0 .0500709.0407205.0907913.0907913.0907913.0500669 0 .0907874-.0407205.0907874-.0907913 0-.0500669-.0407205-.0907874-.0907874-.0907874z"></path><path d="m.163417.617307c-.0600787 0-.108953-.048874-.108953-.108933 0-.0600787.048874-.108953.108953-.108953.0600591 0 .108933.048874.108933.108953 0 .0600591-.048874.108933-.108933.108933zm0-.181555c-.0400394 0-.0726378.0325827-.0726378.0726378 0 .0400433.0326063.072626.0726378.072626.0400354 0 .072626-.0325827.072626-.072626 0-.0400709-.0325827-.0726378-.072626-.0726378z"></path><path d="m1.54325.998591h-.272346c-.0100118 0-.0181457-.00814173-.0181457-.0181457 0-.0100276.0081378-.0181654.0181457-.0181654l.272346-.00000787c.0100276 0 .0181654.00814173.0181654.0181654 0 .0100118-.0081378.0181535-.0181654.0181535z"></path><path d="m.399449.998591h-.272339c-.0100276 0-.0181654-.00814173-.0181654-.0181457 0-.0100276.0081378-.0181654.0181654-.0181654l.272339-.00000787c.0100118 0 .0181457.00814173.0181457.0181654.00000787.0100118-.00813386.0181535-.0181457.0181535z"></path><path d="m1.10753.344984h-.544689c-.0100118 0-.0181417-.0081378-.0181417-.0181654v-.308657c0-.0100276.0081378-.0181654.0181417-.0181654h.544689c.0100118 0 .0181417.0081378.0181417.0181654v.308657c0 .0100315-.00812992.0181654-.0181417.0181654zm-.526524-.036311h.508358v-.272339l-.508358-.00000787v.272346z"></path></g><path d="m.381283.871492h-.236031v.090788l.236031-.000008z" fill="#ffb300"></path><path d="m.381272 1.56142.00001181-.00066142c-.00000787.00022047-.00001181.00044095-.00001181.00066142zm.00001181-.562831h-.236031v.671764h.236031v-.108276c-.00000787-.00021654-.00001181-.00043701-.00001181-.00065748l.00001181-.00066142v-.562169z" fill="#ffb300"></path><path d="m1.25276.980445.00001575-.00076378c-.00001181.00025197-.00001575.00050787-.00001575.00076378zm-.835161-.00000787v.562819h.254181v-.217854c0-.0100236.0081378-.0181654.0181457-.0181654h.290512c.0100236 0 .0181417.00814173.0181417.0181654v.217854h.254181l.00001575-.562051c-.00001181-.00025197-.00001575-.00050394-.00001575-.00075984l.00001575-.00076378-.00001575-.126343c0-.00025591.00000394-.00051181.00001575-.00076378v-.507591h-.14524-.21789-.108933-.217866-.14524l-.00000787.508354v.127098zm.181579.23602h-.0907913c-.0100236 0-.0181654-.00814173-.0181654-.0181654v-.254185-.254173-.254181c0-.0100118.00814173-.0181457.0181654-.0181457h.0907913c.0100118 0 .0181417.00814173.0181417.0181457v.254181.254154.254197c0 .0100551-.00812992.0181732-.0181417.0181732zm.544665 0h-.0907835c-.0100276 0-.0181654-.00814173-.0181654-.0181654v-.254185-.254173-.254181c0-.0100118.0081378-.0181457.0181654-.0181457h.0907835c.0100118 0 .0181417.00814173.0181417.0181457v.254181.254154.254197c.00000787.0100551-.00812992.0181732-.0181417.0181732zm-.181571 0h-.0907677c-.0100276 0-.0181654-.00814173-.0181654-.0181654v-.254185-.254173-.254181c0-.0100118.0081378-.0181457.0181654-.0181457h.0907677c.0100236 0 .0181654.00814173.0181654.0181457v.254181.254154.254197c0 .0100551-.00814173.0181732-.0181654.0181732zm-.181559 0h-.0907874c-.0100157 0-.0181457-.00814173-.0181457-.0181654v-.254185-.254173-.254181c0-.0100118.0081378-.0181457.0181457-.0181457h.0907874c.0100276 0 .0181457.00814173.0181457.0181457v.254181.254154.254197c.00000394.0100551-.00809843.0181732-.0181457.0181732z" fill="#ffb300"></path><path d="m.671776 1.57956h-.254174v.09079h.254174z" fill="#ffb300"></path><path d="m.998575 1.57956v.09079h.254195v-.09079z" fill="#ffb300"></path><path d="m1.28909.998591v.562829.10893h.23603v-.671759z" fill="#ffb300"></path><path d="m1.28909.96228.23603-.000008v-.09078h-.23603z" fill="#ffb300"></path><path d="m.907807.308673h.181559v-.272339l-.181559-.00000394v.0635394h.081685c.0100276 0 .0181654.0081378.0181654.0181654v.108933c0 .0100236-.0081378.0181654-.0181654.0181654h-.081685v.0635394z" fill="#ffb300"></path><path d="m.889642.208823h.0817087v-.072622h-.0817087c-.0100276 0-.0181417-.00814173-.0181417-.0181654v-.081685h-.0726417v.081685c0 .0100236-.00811417.0181654-.0181417.0181654h-.0817165v.072622h.0817087c.0100276 0 .0181457.0081378.0181457.0181457l.00000394.0817047h.0726417v-.0817047c0-.0100118.00811417-.0181457.0181417-.0181457z" fill="#f44230"></path><path d="m.662693.226969v-.108933c0-.0100276.0081378-.0181654.0181654-.0181654h.081685v-.0635394l-.181535-.00000394v.272346h.181535v-.0635394h-.081685c-.0100276 0-.0181654-.00814173-.0181654-.0181654z" fill="#ffb300"></path><path d="m.236043.50839c0-.0400709-.0325827-.0726378-.072626-.0726378-.0400394 0-.0726378.0325827-.0726378.0726378 0 .0400433.0326063.072626.0726378.072626.0400354 0 .072626-.0325827.072626-.072626z" fill="#efd9dc"></path><path d="m1.43431.417606c0 .0500709.0407205.0907913.0907913.0907913.0500669 0 .0907874-.0407205.0907874-.0907913 0-.0500669-.0407205-.0907874-.0907874-.0907874-.0500709 0-.0907913.0407205-.0907913.0907874z" fill="#efd9dc"></path><g id="_375486768" fill="#fafafb"><path id="_375485736" d="m.708083 1.56142v.10893h.254185v-.10893-.21786h-.254185z"></path><path id="_375489600" d="m.581008.671768v-.217851h-.054473v.217851z"></path><path id="_375490560" d="m.708083.453917v.217851h.05446v-.217851z"></path><path id="_375483024" d="m.889642.453917v.217851h.05448v-.217851z"></path><path id="_375483672" d="m1.07122.453917v.217851h.05445v-.217851z"></path><path id="_375489432" d="m1.12567.708079h-.05445v.217886h.05445z"></path><path id="_375486792" d="m.944122.925965v-.217886h-.05448v.217886z"></path><path id="_375484584" d="m.762543.925965v-.217886h-.05446v.217886z"></path><path id="_375486864" d="m.581008.925965v-.217886h-.054473v.217886z"></path><path id="_375485160" d="m.581008.962252-.054473.000008v.21788h.054473z"></path><path id="_375488568" d="m.708083.96226v.21788h.05446v-.217888z"></path><path id="_375483648" d="m.889642.96226v.21788h.05448v-.217888z"></path><path id="_375487152" d="m1.07122.96226v.21788h.05445v-.217888z"></path></g></g></svg>