<!-- icon666.com - MILLIONS OF FREE VECTOR ICONS --><svg viewBox="0 0 100 100" xmlns="http://www.w3.org/2000/svg"><path d="m50 0c27.614 0 50 22.386 50 50s-22.386 50-50 50-50-22.386-50-50 22.386-50 50-50z" fill="#efc75e"></path><g fill="#f2f1ef"><path d="m26 93.869v-49.869h-25.629c-.236 1.969-.371 3.968-.371 6 0 18.916 10.506 35.375 26 43.869zm48-49.869v49.869c15.493-8.494 26-24.953 26-43.869 0-2.032-.136-4.031-.371-6z"></path></g><g fill="#e2574c"><path d="m98.54 38h-24.54c-1.104 0-2 .896-2 2v2c0 1.104.896 2 2 2h25.629c-.244-2.04-.607-4.043-1.089-6zm-72.54 0h-24.54c-.482 1.957-.845 3.96-1.089 6h25.629c1.104 0 2-.896 2-2v-2c0-1.104-.896-2-2-2zm51-10v-2c0-1.104-.896-2-2-2h-50c-1.104 0-2 .896-2 2v2c0 1.104.896 2 2 2h50c1.104 0 2-.896 2-2z"></path></g><path d="m74 30h-48v63.869c7.125 3.906 15.302 6.131 24 6.131s16.875-2.225 24-6.131z" fill="#f2f1ef"></path><path d="m36 97.999c4.444 1.294 9.138 2.001 14 2.001 4.861 0 9.556-.707 14-2.001v-17.999h-28z" fill="#c2c1bf"></path><path d="m50 17c5.522 0 10 4.478 10 10 0 5.523-4.478 10-10 10s-10-4.477-10-10c0-5.522 4.478-10 10-10z" fill="#cfcdcb"></path><path d="m60 27c0-1.045-.162-2.053-.459-3h-19.082c-.297.947-.459 1.955-.459 3s.162 2.053.459 3h19.082c.297-.947.459-1.955.459-3z" fill="#cc5248"></path><path d="m26 30h48v3h-48z" fill="#d9d8d7"></path><path d="m42.014 33h15.973c.675-.897 1.21-1.905 1.555-3h-19.083c.344 1.095.88 2.103 1.555 3z" fill="#bab8b6"></path><path d="m36 97.999c2.69.783 5.472 1.35 8.329 1.672l19.671-19.671h-28z" fill="#cbcac9"></path><path d="m49 82h2v18h-2z" fill="#aeadac"></path><path d="m38 82h24v3h-24z" fill="#b6b5b5"></path><path d="m53 90v4h2v-4zm-8 4h2v-4h-2z" fill="#d7d6d4"></path><path d="m50 15c5.522 0 10 4.478 10 10 0 5.523-4.478 10-10 10s-10-4.477-10-10c0-5.522 4.478-10 10-10z" fill="#fff"></path><path d="m54 23h-2v-2c0-.552-.447-1-1-1h-2c-.553 0-1 .448-1 1v2h-2c-.553 0-1 .448-1 1v2c0 .553.447 1 1 1h2v2c0 .553.447 1 1 1h2c.553 0 1-.447 1-1v-2h2c.553 0 1-.447 1-1v-2c0-.552-.447-1-1-1z" fill="#e2574c"></path><path d="m32 53h8v-10h-8zm14 0h8v-10h-8zm14-10v10h8v-10zm-28 26h8v-10h-8zm14 0h8v-10h-8zm14 0h8v-10h-8z" fill="#4abee5"></path><path d="m32 53 8-10h-8zm0 16 8-10h-8zm14 0 8-10h-8zm14 0 8-10h-8zm0-26v10l8-10zm-14 10 8-10h-8z" fill="#6ecbea"></path><path d="m51 93v-11h-2v13z" fill="#b6b5b5"></path><path d="m34 97.369c1.311.442 2.643.837 4 1.171v-17.54h-4z" fill="#d6d6d5"></path><path d="m49 82h2v3h-2z" fill="#a3a3a3"></path><g fill="#d9d8d7"><path d="m74 93.869c.411-.225.813-.463 1.217-.699l2.783-49.17h-4zm-49.217-.699c.404.236.806.475 1.217.699v-49.869h-4z"></path></g><g fill="#4abee5"><path d="m82 65v7h12.904c1.102-2.244 2.044-4.581 2.804-7zm0-14v7h17.355c.367-2.285.572-4.623.619-7zm0 28v7h2.68c2.221-2.141 4.242-4.482 6.038-7zm-81.355-21h17.355v-7h-17.975c.047 2.377.252 4.715.62 7zm17.355 7h-15.708c.76 2.419 1.702 4.756 2.803 7h12.905zm0 14h-8.718c1.796 2.518 3.817 4.859 6.039 7h2.679z"></path></g><g fill="#6ecbea"><path d="m82 51v7l17.975-6.99v-.01zm0 14v7l15.36-5.974.348-1.026zm8.718 14h-8.718v7l4.355-1.694c1.573-1.665 3.03-3.437 4.363-5.306zm-88.426-14c.573 1.822 1.256 3.595 2.025 5.321l13.683-5.321zm-1.689-7.234 17.397-6.766h-17.975c.045 2.296.233 4.556.578 6.766zm17.397 21.234h-8.718c.637.893 1.295 1.77 1.988 2.617z"></path></g><path d="m62 98.54c1.356-.334 2.689-.729 4-1.171v-16.369h-4z" fill="#fbfbfa"></path><path d="m64 97.999c.673-.196 1.339-.406 2-.63v-16.369h-2z" fill="#d6d6d5"></path><path d="m36 97.999c.662.192 1.327.376 2 .541v-17.54h-2z" fill="#fbfbfa"></path><path d="m34 78h32c1.104 0 2 .896 2 2 0 1.105-.896 2-2 2h-32c-1.104 0-2-.895-2-2 0-1.104.896-2 2-2z" fill="#e2574c"></path></svg>