<!-- icon666.com - MILLIONS OF FREE VECTOR ICONS --><svg clip-rule="evenodd" fill-rule="evenodd" image-rendering="optimizeQuality" shape-rendering="geometricPrecision" text-rendering="geometricPrecision" viewBox="0 0 4335 4335" xmlns="http://www.w3.org/2000/svg"><g id="Layer_x0020_1"><path d="m4136 3652h-1542l137 440h528c85 0 81 127 0 127h-2391c-84 0-84-127 0-127h528l137-440h-1334c-109 0-198-88-198-197v-2515c0-109 89-197 198-197h747c-36-84-57-169-57-254 0-346 465-531 690-204 216-324 691-148 691 204 0 84-20 168-55 250h1921c109 0 197 88 197 198v2518c0 109-88 197-197 197zm-1673 0h-799l-138 444h1075zm-856-123h1392v-1166h-458c-28 0-57-21-60-49l-130-708-564 1310c-25 59-113 43-120-21l-81-884-440 1018c-24 52-112 46-120-18l-148-1310-309 630c-11 21-32 35-57 35h-387v1089c0 42 31 74 74 74zm2057-117c-176 0-317-144-317-320s141-317 317-317 321 141 321 317-141 320-321 320zm0-514c-105 0-193 88-193 194 0 109 88 197 193 197 256 0 266-391 0-391zm0-384c-176 0-317-140-317-317 0-176 141-320 317-320s321 144 321 320c0 173-141 317-321 317zm0-514c-105 0-193 88-193 197 0 106 88 194 193 194 109 0 198-84 198-194 0-109-89-197-198-197zm0-380c-176 0-317-141-317-317s141-321 317-321c180 0 321 141 321 321 0 172-141 317-321 317zm0-514c-109 0-193 88-193 197 0 105 88 194 193 194 260 0 262-391 0-391zm-665 1130v-1370h-849c-124 208-328 409-528 606-26 21-64 25-88 0-197-197-398-398-522-602h-813c-43 0-74 31-74 74v1296h352l391-782c25-55 108-40 116 21l144 1285 444-1021c26-59 113-43 120 21l81 881 542-1279c24-54 107-50 117 11l158 859zm126-1370v2663h1011c39 0 74-36 74-74v-2515c0-42-32-74-74-74zm-1859-630c-141 0-254 112-254 250 0 274 282 567 564 852 285-285 567-578 567-852 0-138-113-250-254-250-244 0-215 236-317 236-105 0-59-236-306-236z" fill="#52050d"></path><path d="m2999 3529v-1166h-458c-28 0-57-21-60-49l-130-708-564 1310c-25 59-113 43-120-21l-81-884-440 1018c-24 52-112 46-120-18l-148-1310-309 630c-11 21-32 35-57 35h-387v1089c0 42 31 74 74 74h1408z" fill="#ffd300"></path><path d="m1773 2645 542-1279c24-54 107-50 117 11l158 859h409v-1370h-849c-124 208-328 409-528 606-26 21-64 25-88 0-197-197-398-398-522-602h-813c-43 0-74 31-74 74v1296h352l391-782c25-55 108-40 116 21l144 1285 444-1021c26-59 113-43 120 21z" fill="#ff4500"></path><path d="m1576 1338c285-285 567-578 567-852 0-138-113-250-254-250-244 0-215 236-317 236-105 0-59-236-306-236-141 0-254 112-254 250 0 274 282 567 564 852z" fill="#ffd300"></path><path d="m3664 982c180 0 321 141 321 321 0 172-141 317-321 317-176 0-317-141-317-317s141-321 317-321zm-539-116v2663h1011c39 0 74-36 74-74v-2515c0-42-32-74-74-74zm539 1011c176 0 321 144 321 320 0 173-141 317-321 317-176 0-317-140-317-317 0-176 141-320 317-320zm-317 1215c0-176 141-317 317-317s321 141 321 317-141 320-321 320c-176 0-317-144-317-320z" fill="#ff4500"></path><g fill="#ffd300"><path d="m3664 1497c260 0 262-391 0-391-109 0-193 88-193 197 0 105 88 194 193 194z"></path><path d="m3664 2000c-105 0-193 88-193 197 0 106 88 194 193 194 109 0 198-84 198-194 0-109-89-197-198-197z"></path><path d="m3664 2898c-105 0-193 88-193 194 0 109 88 197 193 197 256 0 266-391 0-391z"></path></g></g></svg>