<!-- icon666.com - MILLIONS OF FREE VECTOR ICONS --><svg clip-rule="evenodd" fill-rule="evenodd" image-rendering="optimizeQuality" shape-rendering="geometricPrecision" text-rendering="geometricPrecision" viewBox="0 0 4335 4335" xmlns="http://www.w3.org/2000/svg"><g id="Layer_x0020_1"><path d="m3064 3354c337-202 589-506 726-862l-223 61c-125 0-122-186-151-275-139 53-283 26-430 14-56-3-225-17-253-140-43-184 327-412 405-458 194-111 296-21 422-236l189-316c-419-917-1529-1291-2413-808 148 53 309 158 323 335h38c564-14 641 3 677 42 173 182 117 440-99 440h-271c-109 0-240 88-289 194-102 212-227 141-451 141-362 0-256-254-525 0l-308 308c-1 23-2 46-2 69 0 619 325 1184 856 1499v-883c0-44 43-69 81-60 335 102 581 21 740-246 44-75 91-70 137 0 60 98 240 398 740 243 42-15 81 23 81 60zm-895 439c-310 0-563-254-563-564s253-563 563-563 564 253 564 563-254 564-564 564zm0-1004c-243 0-440 197-440 440s197 441 440 441 440-198 440-441-197-440-440-440zm88 800c-263 0-236 28-236-215-247 0-218 27-218-233 0-35 28-63 63-63h155c0-240-26-211 233-211 35 0 63 28 63 63v155c243 0 215-27 215 232 0 36-28 64-63 64h-152v151c0 32-28 57-60 57zm-109-124h46c0-239-25-215 215-215v-45c-241 0-215 24-215-219h-46c0 245 26 219-218 219v45c243 0 218-26 218 215zm-863 38c-603-325-979-950-979-1640 0-1025 835-1863 1860-1863s1863 834 1863 1863c0 676-362 1301-965 1633l-4 36c-10 25-222 631-870 796-7 4-19 13-35 4-644-169-859-772-866-796zm123 1c29 70 236 560 761 704 529-148 736-634 764-704v-944c-246 57-549 42-764-264-211 306-517 321-764 264v944zm2428-1149c102-351 92-726-29-1068l-137 234c-159 269-305 185-469 278-211 124-356 272-345 324 7 28 98 42 183 50 123 10 254 24 349-18 42-17 70-7 91 4 86 44 65 190 103 264zm-2647-1931c-390 266-666 688-740 1176l206-206c194-176 271-179 387-102 138 90 208 59 388 74 119 11 130 11 176-77 70-148 243-264 401-264h271c144 0 53-203 14-226-46-28-581-7-697-7-41 0-65-38-60-70 29-215-285-287-346-298z" fill="#52050d"></path><path d="m2733 2152c-43-184 327-412 405-458 194-111 296-21 422-236l189-316c-419-917-1529-1291-2413-808 148 53 309 158 323 335h38c564-14 641 3 677 42 173 182 117 440-99 440h-271c-109 0-240 88-289 194-102 212-227 141-451 141-362 0-256-254-525 0l-308 308c-1 23-2 46-2 69 0 619 325 1184 856 1499v-883c0-44 43-69 81-60 335 102 581 21 740-246 44-75 91-70 137 0 60 98 240 398 740 243 42-15 81 23 81 60v878c337-202 589-506 726-862l-223 61c-125 0-122-186-151-275-139 53-283 26-430 14-56-3-225-17-253-140z" fill="#ff4500"></path><path d="m1606 1289c70-148 243-264 401-264h271c144 0 53-203 14-226-46-28-581-7-697-7-41 0-65-38-60-70 29-215-285-287-346-298-390 266-666 688-740 1176l206-206c194-176 271-179 387-102 138 90 208 59 388 74 119 11 130 11 176-77z" fill="#ffd300"></path><path d="m3670 1521c-159 269-305 185-469 278-211 124-356 272-345 324 7 28 98 42 183 50 123 10 254 24 349-18 42-17 70-7 91 4 86 44 65 190 103 264l254-68c102-351 92-726-29-1068z" fill="#ffd300"></path><path d="m2933 2560c-246 57-549 42-764-264-211 306-517 321-764 264v944h3c29 70 236 560 761 704 529-148 736-634 764-704zm-764 106c310 0 564 253 564 563s-254 564-564 564-563-254-563-564 253-563 563-563z" fill="#ff4500"></path><g fill="#ffd300"><path d="m2609 3229c0-243-197-440-440-440s-440 197-440 440 197 441 440 441 440-198 440-441zm-292-144c243 0 215-27 215 232 0 36-28 64-63 64h-152v151c0 32-28 57-60 57-263 0-236 28-236-215-247 0-218 27-218-233 0-35 28-63 63-63h155c0-240-26-211 233-211 35 0 63 28 63 63z"></path><path d="m2409 3205c-241 0-215 24-215-219h-46c0 245 26 219-218 219v45c243 0 218-26 218 215h46c0-239-25-215 215-215z"></path></g></g></svg>