<!-- icon666.com - MILLIONS OF FREE VECTOR ICONS --><svg id="Capa_1" enable-background="new 0 0 512 512" viewBox="0 0 512 512" xmlns="http://www.w3.org/2000/svg"><g><circle cx="256" cy="256" fill="#f99e49" r="256"></circle><path d="m510.981 278.762-177.361-177.361-232.219 309.198 94.22 94.22c19.362 4.682 39.577 7.181 60.379 7.181 133.712 0 243.461-102.519 254.981-233.238z" fill="#fc7e49"></path><g><path d="m256 273.631v-74.724h-154.599v38.49z" fill="#92b1c6"></path><path d="m101.401 237.397v173.202h76.979l77.62-173.202z" fill="#b4d5e0"></path><path d="m256 198.907v74.724l154.599-36.234v-38.49z" fill="#6f8cac"></path><path d="m256 237.397 77.62 173.202h76.979v-173.202z" fill="#92b1c6"></path><path d="m256 101.401-36.234 293.938 75.365 15.26h38.489v-309.198z" fill="#b4d5e0"></path><path d="m256 340.987v-239.586h-77.62v309.198h38.489z" fill="#d6f9fa"></path><path d="m237.883 353.993 18.117 56.606h39.131v-38.489z" fill="#6f8cac"></path><path d="m216.869 372.11v38.489h39.131v-56.606z" fill="#92b1c6"></path><path d="m295.131 372.11v-67.357h-39.131l-18.117 33.678 18.117 33.679z" fill="#d6f9fa"></path><g fill="#fff"><path d="m216.869 304.753h39.131v67.356h-39.131z"></path><path d="m363.051 323.998h18.117v38.489h-18.117z"></path><path d="m130.832 323.998h18.117v38.489h-18.117z"></path><path d="m363.051 266.264h18.117v38.489h-18.117z"></path><path d="m130.832 266.264h18.117v38.489h-18.117z"></path><path d="m286.073 237.397h18.117v38.49h-18.117z"></path><path d="m207.811 237.397h18.117v38.49h-18.117z"></path><path d="m246.941 237.397h9.059v38.49h-9.059z"></path><path d="m256 237.397h9.059v38.49h-9.059z"></path></g><path d="m265.059 160.34v-20.45h-9.059l-9.059 29.509 9.059 29.508h9.059v-20.449h20.45v-18.118z" fill="#ff3a33"></path><path d="m246.941 139.89v20.45h-20.45v18.118h20.45v20.449h9.059v-59.017z" fill="#fe5e49"></path></g></g></svg>