<!-- icon666.com - MILLIONS OF FREE VECTOR ICONS --><svg clip-rule="evenodd" fill-rule="evenodd" image-rendering="optimizeQuality" shape-rendering="geometricPrecision" text-rendering="geometricPrecision" viewBox="0 0 4335 4335" xmlns="http://www.w3.org/2000/svg"><g id="Layer_x0020_1"><path d="m3219 3844h-1515c-30 5-11 5-42 0h-1402c-35 0-63-28-63-64v-1845c0-21 11-39 25-49l831-595v-159c0-35 28-63 63-63h550c-345-420-52-1068 500-1068 549 0 850 642 504 1064h549c35 0 63 28 63 64v736h793c35 0 63 28 63 63v1849c0 39-28 67-63 67zm246 489h-2514c-84 0-84-126 0-126h2514c84 0 84 126 0 126zm-729-264h-1053c-83 0-83-126 0-126h1053c84 0 84 126 0 126zm1092-563h-363c-35 0-63-28-63-64v-355c0-36 28-64 63-64h360c35 0 63 28 63 64v359c0 35-28 60-60 60zm-299-123h236v-236h-236zm299-691h-363c-35 0-63-28-63-63v-356c0-35 28-63 63-63h360c35 0 63 28 63 63v359c0 32-28 60-60 60zm-299-123h236v-236h-236zm-1251-1532c-327 0-292 35-292-211-246 0-211 34-211-289 0-35 28-64 63-64h148c0-242-34-207 292-207 36 0 64 28 64 63v148c246 0 211-34 211 289 0 35-28 63-63 63h-148v148c0 32-28 60-64 60zm-165-123h106c0-235-24-212 211-212v-102c-236 0-211 23-211-208h-106c0 232 26 208-208 208v102c235 0 211-23 211 212zm-11 2810v-782h-355v782zm127-782v782h352v-782zm-609 782v-845c0-35 28-64 63-64h962c35 0 63 29 63 64v845h451v-1775c-5-31-5-11 0-42v-715h-627c-105 71-231 113-366 113-134 0-257-41-360-110h-626v2529zm1222-1514h-416c-53 0-98-43-98-95v-550c0-53 42-95 98-95h412c53 0 99 42 99 95v546c0 56-42 99-95 99zm-387-124h359v-489h-359zm-546 124h-416c-53 0-95-43-95-95v-550c0-53 42-95 95-95h416c52 0 95 42 95 95v546c-4 56-46 99-95 99zm-388-124h359v-489h-359zm324-1014c23 8 121 109 321 109 108 0 208-32 292-87 8-13 21-23 36-27 122-96 200-246 200-414 0-292-236-528-528-528-500 0-722 639-321 947zm1437 919v1726h733v-1726zm-2229 1730v-2281l-733 527v1754z" fill="#52050d"></path><path d="m2708 2879v845h451v-1775c-5-31-5-11 0-42v-715h-627c-105 71-231 113-366 113-134 0-257-41-360-110h-626v2529h440v-845c0-35 28-64 63-64h962c35 0 63 29 63 64zm134-669h-416c-53 0-98-43-98-95v-550c0-53 42-95 98-95h412c53 0 99 42 99 95v546c0 56-42 99-95 99zm-933 0h-416c-53 0-95-43-95-95v-550c0-53 42-95 95-95h416c52 0 95 42 95 95v546c-4 56-46 99-95 99z" fill="#ff4500"></path><g fill="#ffd300"><path d="m2455 2086h359v-489h-359z"></path><path d="m1880 2086v-489h-359v489z"></path><path d="m2102 2942h-355v782h355z"></path><path d="m2229 2942v782h352v-782z"></path></g><path d="m3282 1991v1726h733v-1726zm183 1032h360c35 0 63 28 63 64v359c0 35-28 60-60 60h-363c-35 0-63-28-63-64v-355c0-36 28-64 63-64zm363-331h-363c-35 0-63-28-63-63v-356c0-35 28-63 63-63h360c35 0 63 28 63 63v359c0 32-28 60-60 60z" fill="#ff4500"></path><path d="m3529 2333v236h236v-236z" fill="#ffd300"></path><path d="m3765 3147h-236v236h236z" fill="#ffd300"></path><path d="m1053 3721v-2281l-733 527v1754z" fill="#ff4500"></path><path d="m1905 702c235 0 211-23 211 212h103c0-235-24-212 211-212v-102c-236 0-211 23-211-208h-106c0 232 26 208-208 208z" fill="#ffd300"></path><path d="m2342 477c246 0 211-34 211 289 0 35-28 63-63 63h-148v148c0 32-28 60-64 60-327 0-292 35-292-211-246 0-211 34-211-289 0-35 28-64 63-64h148c0-242-34-207 292-207 36 0 64 28 64 63zm116 617c8-13 21-23 36-27 122-96 200-246 200-414 0-292-236-528-528-528-500 0-722 639-321 947 23 8 121 109 321 109 108 0 208-32 292-87z" fill="#ff4500"></path></g></svg>