<!-- icon666.com - MILLIONS OF FREE VECTOR ICONS --><svg id="Capa_1" enable-background="new 0 0 469.333 469.333" viewBox="0 0 469.333 469.333" xmlns="http://www.w3.org/2000/svg"><g fill="#ffc107"><path d="m269.867 220.228c-5.48-2.163-8.169-8.358-6.006-13.838.699-1.771 1.859-3.323 3.36-4.494 23.328-17.984 27.659-51.474 9.675-74.802s-51.474-27.659-74.802-9.675-27.659 51.474-9.675 74.802c2.796 3.627 6.048 6.879 9.675 9.675 4.645 3.624 5.472 10.327 1.849 14.971-1.171 1.501-2.723 2.661-4.494 3.36-36.711 14.308-60.856 49.704-60.783 89.105v35.458c61.799 23.74 130.201 23.74 192 0v-35.458c.071-39.404-24.082-74.801-60.799-89.104z"></path><path d="m234.667 0c-129.603 0-234.667 105.064-234.667 234.667s105.064 234.667 234.667 234.667 234.666-105.064 234.666-234.667-105.063-234.667-234.666-234.667zm117.333 352c.003 4.308-2.585 8.196-6.562 9.854-70.896 29.528-150.647 29.528-221.542 0-3.977-1.658-6.566-5.545-6.562-9.854v-42.667c-.115-42.363 22.782-81.448 59.791-102.063-11.079-13.259-17.14-29.992-17.125-47.27 0-41.237 33.429-74.667 74.667-74.667s74.667 33.429 74.667 74.667c.015 17.278-6.046 34.011-17.124 47.27 37.009 20.615 59.906 59.7 59.791 102.063v42.667z"></path></g></svg>