<!-- icon666.com - MILLIONS OF FREE VECTOR ICONS --><svg id="svg8" viewBox="0 0 28 28" xmlns="http://www.w3.org/2000/svg" xmlns:svg="http://www.w3.org/2000/svg"><g id="layer2" transform="translate(-242 -122)"><g id="g14515" stroke-linecap="round" stroke-linejoin="round" transform="translate(240 120)"><path id="path9925" d="m16 8c-2.749573 0-5 2.250427-5 5 0 1.418242.599502 2.702925 1.556641 3.615234-3.6078068 1.32898-6.2660039 4.682098-6.5351566 8.720704a1 1 0 0 0 .9316406 1.0625 1 1 0 0 0 1.0644531-.929688c.2807088-4.212004 3.7610749-7.46875 7.9824219-7.46875 4.212157 0 7.687963 3.243325 7.980469 7.445312a1 1 0 0 0 1.066406.927735 1 1 0 0 0 .929687-1.068359c-.280321-4.026966-2.934361-7.364686-6.533203-8.689454.957139-.912309 1.556641-2.196992 1.556641-3.615234 0-2.749573-2.250427-5-5-5zm0 2c1.668695 0 3 1.331305 3 3s-1.331305 3-3 3-3-1.331305-3-3 1.331305-3 3-3z" fill="#f37929"></path><path id="path12754" d="m16 2c-7.7201341 0-14 6.2798659-14 14 0 3.982014 1.6690135 7.587919 4.34375 10.136719a1 1 0 0 0 1.4140625-.03516 1 1 0 0 0 -.035156-1.412109c-2.2948212-2.186769-3.7226565-5.264949-3.7226565-8.68945 0-6.6392549 5.3607451-12 12-12 6.639255 0 12 5.360745 12 12s-5.360745 12-12 12c-1.874385 0-3.642916-.427908-5.220703-1.191406a1 1 0 0 0 -1.3339845.464843 1 1 0 0 0 .4628906 1.335938c1.8419819.891344 3.9122599 1.390625 6.0917969 1.390625 7.720134 0 14-6.279866 14-14 0-7.7201341-6.279866-14-14-14z" fill="#3c2684"></path></g></g></svg>