<!-- icon666.com - MILLIONS OF FREE VECTOR ICONS --><svg id="Layer_1" enable-background="new 0 0 26 26" viewBox="0 0 26 26" xmlns="http://www.w3.org/2000/svg"><g id="_x35_4"><path d="m1 21.0048828c0 2.203125 1.7919922 3.9951172 3.9951172 3.9951172h16.0097656c2.203125 0 3.9951172-1.7919922 3.9951172-3.9951172 0-4.8337231 0-11.151166 0-16.0087891 0-2.2031249-1.7919922-3.9960937-3.9951172-3.9960937h-16.0097656c-2.203125 0-3.9951172 1.7929688-3.9951172 3.9960938zm22 0c0 1.100586-.8945312 1.9951172-1.9951172 1.9951172h-16.0097656c-1.1005859 0-1.9951172-.8945312-1.9951172-1.9951172v-11.0878906h20zm-20-16.008789c0-1.100586.8945313-1.9960938 1.9951172-1.9960938h16.0097656c1.100586 0 1.9951172.8955078 1.9951172 1.9960938v2.9208984h-20z"></path><path d="m5.1582031 4.7539063c-.3520565.3321972-.4230437.9871125 0 1.4101563.4443765.4443765 1.1105499.3321719 1.4101563 0 .4161153-.4182601.3828907-1.0470023 0-1.4101563-.3701172-.3701172-1.0400391-.3701172-1.4101563 0z"></path><path d="m8.9179688 4.7539063c-.3686152.3496141-.4045467 1.0035243 0 1.4101563.3228331.357923 1.016819.4147143 1.4101563 0 .4161148-.4182601.3828907-1.0470023 0-1.4101563-.2568532-.3195005-.9579793-.4521776-1.4101563 0z"></path><path d="m14.0878906 4.7539063c-.2443666-.3039689-.9523811-.4771719-1.4101563 0-.4161434.4161439-.3602772 1.0480223 0 1.4101563.4160423.4139085 1.0852194.3602562 1.4101563 0 .4427805-.4427801.3508072-1.0968143 0-1.4101563z"></path><path d="m9.7988281 21.3964844h6.4023438c1.1181202 0 1.9595222-1.0376072 1.7041016-2.1132813-.3366699-1.4105225-1.2392578-2.555481-2.4326172-3.2254028.2967529-.4597168.4736328-1.0040894.4736328-1.5910034 0-1.6240234-1.3212891-2.9453125-2.9462891-2.9453125s-2.9462891 1.3212891-2.9462891 2.9453125c0 .5869141.177002 1.1312866.4737549 1.5910645-1.1933594.6700439-2.0960693 1.8151855-2.4327393 3.2263184-.2548689 1.0712794.5830908 2.1123046 1.7041016 2.1123046zm2.2548828-6.9296875c0-.5214844.4248047-.9453125.9462891-.9453125s.9462891.4238281.9462891.9453125c0 .519104-.4212646.940979-.9394531.9448853-.0024414 0-.0045166-.0005493-.0068359-.0005493s-.0043945.0005493-.0068359.0005493c-.5181886-.0039063-.9394533-.4257813-.9394533-.9448853zm.9353028 2.9451904c.0036621 0 .0073242.0010986.0109863.0010986s.0072021-.0010986.0109863-.0010986c1.2862549.0046387 2.4082031.8033447 2.8425293 1.9844971h-5.7070313c.4353028-1.1821289 1.5561524-1.9798584 2.8425294-1.9844971z"></path></g></svg>