<!-- icon666.com - MILLIONS OF FREE VECTOR ICONS --><svg clip-rule="evenodd" fill-rule="evenodd" image-rendering="optimizeQuality" shape-rendering="geometricPrecision" text-rendering="geometricPrecision" viewBox="0 0 4335 4335" xmlns="http://www.w3.org/2000/svg"><g id="Layer_x0020_1"><path d="m1177 1310c-144-306-159-267 10-350l-395-873c-33-73 79-126 113-50l393 868c168-83 131-90 278 216 108-10 215 35 286 116 267-105 498-251 682-435 25-24 64-24 88 0 226 226 519 395 871 501 32 10 53 42 43 77-14 49-340 1126-876 1555 46-21 126-69 160-56 14 7 28 17 35 32l131 278c14 32 0 67-29 81l-464 218 260 555 275-128c72-32 125 79 49 113-74 34-656 307-680 307-66 0-87-88-25-116l271-126-260-554c-54 26-457 221-480 221-25 0-47-17-56-35l-131-282c-33-74 69-100 144-135l-754-1621c-59-128-30-277 61-377zm747 31 684 1472c428-360 722-1192 797-1418-321-106-596-261-818-469-186 172-408 312-663 415zm-126 13c-10-9-76-147-243-107-25 6-234 99-250 115-34 31-54 43-76 97l134-61c73-33 125 79 50 113l-193 88c9 35 72 164 91 204l193-91c74-34 123 75 53 109l-195 92 93 203 197-90c73-33 126 78 50 112l-195 90 94 203 199-92c73-32 126 79 50 113l-197 91 92 199 196-92c74-34 123 75 53 109l-198 94 95 205 198-91c73-33 126 79 50 113l-197 90 40 86 574-267-752-1623c-2-4-4-8-6-12zm887 710c-302 0-268 36-268-229-260 0-225 34-225-268 0-35 28-63 63-63h166c0-264-35-229 268-229 35 0 63 28 63 63v166c265 0 229-35 229 268 0 35-28 63-63 63h-169v166c0 39-28 63-64 63zm-141-123h81c0-258-29-229 230-229v-81c-259 0-230 29-230-229h-81c0 258 30 229-229 229v81c259 0 229-29 229 229zm-1087-788-73-153-172 84 71 148zm1219 1916-812 377 77 166 917-426-77-166z" fill="#52050d"></path><path d="m1555 1247c-25 6-234 99-250 115-34 31-54 43-76 97l134-61c73-33 125 79 50 113l-193 88c9 35 72 164 91 204l193-91c74-34 123 75 53 109l-195 92 93 203 197-90c73-33 126 78 50 112l-195 90 94 203 199-92c73-32 126 79 50 113l-197 91 92 199 196-92c74-34 123 75 53 109l-198 94 95 205 198-91c73-33 126 79 50 113l-197 90 40 86 574-267-752-1623c-2-4-4-8-6-12-10-9-76-147-243-107z" fill="#ff4500"></path><g fill="#ffd300"><path d="m1283 1232 174-79-73-153-172 84z"></path><path d="m2676 3069-812 377 77 166 917-426-77-166z"></path><path d="m2752 1504c265 0 229-35 229 268 0 35-28 63-63 63h-169v166c0 39-28 63-64 63-302 0-268 36-268-229-260 0-225 34-225-268 0-35 28-63 63-63h166c0-264-35-229 268-229 35 0 63 28 63 63zm-828-163 684 1472c428-360 722-1192 797-1418-321-106-596-261-818-469-186 172-408 312-663 415z"></path><path d="m2855 1631c-259 0-230 29-230-229h-81c0 258 30 229-229 229v81c259 0 229-29 229 229h81c0-258-29-229 230-229z"></path></g></g></svg>